<svg xmlns="http://www.w3.org/2000/svg" viewBox="0 0 612 612"><path d="M277.58 179.68l-.057.076c-5.125-4.705-11.857-7.63-19.335-7.63-15.835 0-28.688 12.85-28.688 28.687 0 8.377 3.634 15.835 9.352 21.076l-.057.076L330.48 306l-91.686 84.055.057.076c-5.717 5.222-9.35 12.68-9.35 21.058 0 15.836 12.85 28.688 28.687 28.688 7.478 0 14.21-2.926 19.335-7.61l.057.075 114.75-105.187c5.91-5.45 9.294-13.1 9.294-21.152s-3.385-15.7-9.295-21.15L277.58 179.68zM306 0C137.012 0 0 137.012 0 306s137.012 306 306 306 306-137.012 306-306S474.988 0 306 0zm0 554.625C168.912 554.625 57.375 443.088 57.375 306S168.912 57.375 306 57.375 554.625 168.912 554.625 306 443.088 554.625 306 554.625z"/></svg>
