<svg xmlns="http://www.w3.org/2000/svg" viewBox="0 0 612 612"><path d="M353.812 172.125c-7.478 0-14.21 2.926-19.335 7.612l-.058-.077-114.75 105.188c-5.91 5.45-9.295 13.1-9.295 21.152s3.385 15.7 9.295 21.152L334.42 432.34l.058-.076c5.125 4.686 11.857 7.61 19.335 7.61 15.836 0 28.688-12.85 28.688-28.687 0-8.357-3.633-15.836-9.352-21.076l.058-.075L281.52 306l91.685-84.054-.058-.077c5.72-5.222 9.353-12.68 9.353-21.058 0-15.835-12.852-28.687-28.688-28.687zM306 0C137.012 0 0 137.012 0 306s137.012 306 306 306 306-137.012 306-306S474.988 0 306 0zm0 554.625C168.912 554.625 57.375 443.088 57.375 306S168.912 57.375 306 57.375 554.625 168.912 554.625 306 443.088 554.625 306 554.625z"/></svg>
