<svg xmlns="http://www.w3.org/2000/svg" viewBox="-262.9 141.4 45 45" enable-background="new -262.9 141.4 45 45"><path fill="#fff" d="M-239.9 154.6c-.8-.8-2.2-.8-3 0l-6.1 6.1c-.8.8-.8 2.2 0 3.1.8.8 2.2.8 3 0l2.4-2.4v9c0 1.2 1 2.2 2.2 2.2 1.2 0 2.2-1 2.2-2.2v-9l2.4 2.4c.8.8 2.2.8 3 0 .8-.8.8-2.2 0-3.1l-6.1-6.1zm17.1-2.6c-6-10.3-19.1-13.8-29.5-7.9-10.3 6-13.8 19.1-7.9 29.5 6 10.3 19.1 13.8 29.5 7.9 10.4-6 13.9-19.2 7.9-29.5zm-10 25.7c-8.3 4.8-18.8 1.9-23.6-6.3-4.8-8.3-1.9-18.8 6.3-23.6 8.3-4.8 18.8-1.9 23.6 6.3 4.8 8.3 1.9 18.9-6.3 23.6z"/></svg>