<svg xmlns="http://www.w3.org/2000/svg" viewBox="-114 -8.7 612 612" enable-background="new -114 -8.7 612 612"><path fill="#D6D6D6" d="M39 220.8h306v-76.5H39v76.5zM421.5-8.7h-459c-42.3 0-76.5 34.2-76.5 76.5V412c0 42.3 34.2 76.5 76.5 76.5h248.6l172.1 114.8V488.5h38.2c42.3 0 76.5-34.2 76.5-76.5V67.8c.1-42.3-34.1-76.5-76.4-76.5zm0 382.5c0 21.1-17.1 38.2-38.2 38.2h-76.5v57.4L211.1 412H.8c-21.1 0-38.2-17.1-38.2-38.2V106c0-21.1 17.1-38.2 38.2-38.2h382.5c21.1 0 38.2 17.1 38.2 38.2v267.8zM39 335.5h306V259H39v76.5z"/></svg>