<svg xmlns="http://www.w3.org/2000/svg" viewBox="-114 -8.7 612 612" enable-background="new -114 -8.7 612 612"><path fill="#fff" d="M163.6 171c-5.2-4.6-11.9-7.6-19.4-7.6-15.8 0-28.7 12.9-28.7 28.7 0 8.4 3.6 15.8 9.4 21.1l-.1.1 91.7 84-91.7 84.1.1.1c-5.7 5.2-9.4 12.7-9.4 21.1 0 15.8 12.9 28.7 28.7 28.7 7.5 0 14.2-2.9 19.3-7.6l.1.1 114.8-105.2c5.9-5.5 9.3-13.1 9.3-21.2s-3.4-15.7-9.3-21.2L163.6 171zM192-8.7c-169 0-306 137-306 306s137 306 306 306 306-137 306-306-137-306-306-306zm0 554.6c-137.1 0-248.6-111.5-248.6-248.6S54.9 48.7 192 48.7s248.6 111.5 248.6 248.6S329.1 545.9 192 545.9z"/></svg>